<mxfile host="Electron" modified="2023-05-25T10:17:30.972Z" agent="Mozilla/5.0 (Macintosh; Intel Mac OS X 10_15_7) AppleWebKit/537.36 (KHTML, like Gecko) draw.io/21.2.8 Chrome/112.0.5615.165 Electron/24.2.0 Safari/537.36" etag="34qpgrMEaKPFi_3lsbxM" version="21.2.8" type="device">
  <diagram name="Page-1" id="Mcz-IlTLuHDEI3czdLDc">
    <mxGraphModel dx="1026" dy="743" grid="1" gridSize="10" guides="1" tooltips="1" connect="1" arrows="1" fold="1" page="1" pageScale="1" pageWidth="827" pageHeight="1169" math="0" shadow="0">
      <root>
        <mxCell id="0" />
        <mxCell id="1" parent="0" />
        <mxCell id="Czs1AC3XbWuy7nexDW_h-3" style="edgeStyle=orthogonalEdgeStyle;rounded=0;orthogonalLoop=1;jettySize=auto;html=1;exitX=0;exitY=0.5;exitDx=0;exitDy=0;startArrow=classic;startFill=1;endArrow=none;endFill=0;fontFamily=CMU serif;fontSize=14;" edge="1" parent="1" source="Czs1AC3XbWuy7nexDW_h-2">
          <mxGeometry relative="1" as="geometry">
            <mxPoint x="30" y="240" as="targetPoint" />
          </mxGeometry>
        </mxCell>
        <mxCell id="Czs1AC3XbWuy7nexDW_h-4" value="UV camera" style="edgeLabel;html=1;align=center;verticalAlign=middle;resizable=0;points=[];fontFamily=CMU serif;fontSize=14;" vertex="1" connectable="0" parent="Czs1AC3XbWuy7nexDW_h-3">
          <mxGeometry x="-0.0355" y="-2" relative="1" as="geometry">
            <mxPoint x="-6" y="-8" as="offset" />
          </mxGeometry>
        </mxCell>
        <mxCell id="Czs1AC3XbWuy7nexDW_h-6" value="" style="edgeStyle=orthogonalEdgeStyle;rounded=0;orthogonalLoop=1;jettySize=auto;html=1;fontFamily=CMU serif;fontSize=14;" edge="1" parent="1" source="Czs1AC3XbWuy7nexDW_h-2" target="Czs1AC3XbWuy7nexDW_h-5">
          <mxGeometry relative="1" as="geometry" />
        </mxCell>
        <mxCell id="Czs1AC3XbWuy7nexDW_h-2" value="Bright points &lt;br style=&quot;font-size: 14px;&quot;&gt;detector" style="rounded=1;whiteSpace=wrap;html=1;fontFamily=CMU serif;fontSize=14;" vertex="1" parent="1">
          <mxGeometry x="150" y="210" width="120" height="60" as="geometry" />
        </mxCell>
        <mxCell id="Czs1AC3XbWuy7nexDW_h-8" value="" style="edgeStyle=orthogonalEdgeStyle;rounded=0;orthogonalLoop=1;jettySize=auto;html=1;fontFamily=CMU serif;fontSize=14;" edge="1" parent="1" source="Czs1AC3XbWuy7nexDW_h-5" target="Czs1AC3XbWuy7nexDW_h-7">
          <mxGeometry relative="1" as="geometry" />
        </mxCell>
        <mxCell id="Czs1AC3XbWuy7nexDW_h-5" value="Extract blinking&lt;br style=&quot;font-size: 14px;&quot;&gt;signals" style="rounded=1;whiteSpace=wrap;html=1;fontFamily=CMU serif;fontSize=14;" vertex="1" parent="1">
          <mxGeometry x="320" y="210" width="120" height="60" as="geometry" />
        </mxCell>
        <mxCell id="Czs1AC3XbWuy7nexDW_h-9" value="Detected UAVs" style="edgeStyle=orthogonalEdgeStyle;rounded=0;orthogonalLoop=1;jettySize=auto;html=1;exitX=1;exitY=0.5;exitDx=0;exitDy=0;fontFamily=CMU serif;fontSize=14;" edge="1" parent="1" source="Czs1AC3XbWuy7nexDW_h-7">
          <mxGeometry x="-0.0056" y="-10" relative="1" as="geometry">
            <mxPoint x="730" y="240" as="targetPoint" />
            <mxPoint x="10" y="-10" as="offset" />
          </mxGeometry>
        </mxCell>
        <mxCell id="Czs1AC3XbWuy7nexDW_h-7" value="Pose &lt;br style=&quot;font-size: 14px;&quot;&gt;calculator" style="rounded=1;whiteSpace=wrap;html=1;fontFamily=CMU serif;fontSize=14;" vertex="1" parent="1">
          <mxGeometry x="490" y="210" width="120" height="60" as="geometry" />
        </mxCell>
      </root>
    </mxGraphModel>
  </diagram>
</mxfile>
